<svg xmlns="http://www.w3.org/2000/svg" version="1.1" xmlns:xlink="http://www.w3.org/1999/xlink" xmlns:svgjs="http://svgjs.dev/svgjs" width="2000" height="2242" viewBox="0 0 2000 2242"><g transform="matrix(1,0,0,1,-3.1151183800621993,0)"><svg viewBox="0 0 321 360" data-background-color="#ffffff" preserveAspectRatio="xMidYMid meet" height="2242" width="2000" xmlns="http://www.w3.org/2000/svg" xmlns:xlink="http://www.w3.org/1999/xlink"><g id="tight-bounds" transform="matrix(1,0,0,1,0.5000234999999975,0)"><svg viewBox="0 0 320 360" height="360" width="320"><g><svg></svg></g><g><svg viewBox="0 0 320 360" height="360" width="320"><g><path transform="translate(-74.99272,-51.79039) scale(4.65793,4.65793)" d="M20.6 59.9l0.8 1-0.4-1.3c-0.1-0.6-0.8 0.1-0.4 0.3M21.5 59.3c0.3 0.5 0.6 1 0.6 1.5 0 0.7 0.6 1 1.1 1.2-0.7-0.8-1.1-3-1.7-2.7M59.9 16.9c1.7 0 3.3-0.2 5.1 0.2 4.4 1.1 8.1 3.3 10.6 6.4l7 11.2c0.3 2.8 0.9 5.9 0.8 9.3 0.7 0 0.6-1 1.4-1.2-0.8 2-1.2 4.5-1.4 7.4-0.5-1.6 0-4 0.1-5.3-0.7 1.1-1.1 0.3-1.1-0.2 0.1-0.8-0.3-0.7-0.6-1-1.1-1-1.8-2.1-2.6-3.8 0.5-1.3 0.6-3.2-1-4.2-0.5-0.3-1.1-0.8-1.4-1.6-0.4-1.1-1.1-2.4-0.9-4.1 0.1-0.5-1.5 1.1-2.4 0.4-3.9-2.7-7.8-5.8-12.5-8.4-2.5 0-4.3-0.9-5.2-2-0.8-1-0.2-2.3 1-2.4 0.7 0 1.5-0.2 2.1 0.2 0.1-0.4 0.5-0.9 1-0.9M50 14.6l0.2 0.1c1 0.2 1.5 1.6 2.6 1.1 0 0.7 0.1 1.4-0.1 1.9-0.3 0.8-1.2 0.8-1.9 0.8-6.7-0.4-10.6 2.4-14.7 4.8-1.1 0.7-2.3 1.2-3.2 2.1-4.3 4-9 7.7-10.1 15.1l-0.9 8.2c-0.1 0.9-1.1 1.8-0.9 2.9l0.7 4.9c-0.7-0.7-1.1 0.2-0.9 0.6 0.1 0.3 0.5 1.3 1.1 0.4 0.8 1.5 1.6 4.4 2.7 5.7 3.4 4 7.8 7.6 11.4 11.2 0.9-0.2 1.6-0.2 1.8-0.8 0.3 0.6-0.3 1.2-0.8 1.3 1.6 1 3.4 1.9 5.8 2.1 3.1 0.2 6 0.7 8.7 1.4 1.4-0.4 2.8-0.6 4.3-0.7 0.5 0 0.8-0.8 1.4-1l0.1-1c0.6 0.9 0.5-0.3 0.1-0.9 0.7 0.6 0.9 1.1 1.2 1.5 0-0.3 0.8-1.4 0.8-0.1l0.2-1.3c0.3-0.2 0.4 1.1 0.7 0.2 0.3-0.9 0.9-0.2 1.5-0.5-0.2 0.4-0.1 1.2 0.6 0.7l0.8-0.7c0.5 1.2 1.3 0.7 1.7 0.5 4.4-2.8 8.8-6.1 13-9.4l-0.1 1.3 0.5-1.6c0.5 0.5 0.9 0.1 1.1-0.2 0.6-1 1.4-2 2.7-2.9-1.6 4.3-3.5 7.7-5.9 10.5l-1 1.2c0 0.7-0.2 1.6-1 1.7-0.4 0.1-1.2-0.2-1.8 0.4-0.3 0.4 0.7 1.2-0.1 0.6-0.7-0.5-1.4 0-2.2 0.2-0.6 0.2 0.4 0.8 0.6 1.2 0.2 0.4 0.4 0.8 0.3 1.3l-1.1-1.2c-1.3 0.7-2.1 2-3.2 3-0.5 0.4-0.3 1.1-0.3 1.7-0.7 0-1.5-0.2-1.9 0.2-0.3 0.4-0.2 1-0.2 1.6-1-0.1-1.1-1.6-2-1.3-0.9 0.2-1.9 0.3-2.7 0.8 0.6 1.2-1 0.5-0.8 0.7-1.5-0.9-2.8-1.6-4.4-1-3.4-1.1-7.6-0.6-10.7-0.2 0-0.5 0.1-1-0.1-1.1-0.2 0.5-0.8 0.3-0.7 0.3-1.9-1.3-3.8-2.1-5.8-3.2-1.8 0.2-3.5-0.7-4-1.2-1.4-1.3-3-0.6-4.3-0.9-2.8-0.7-3.8-3.6-4.1-5.6-0.2-1-1-1.4-1.3-1.3-1.3-4.2-3.3-8-4.9-11.9-0.4-1-0.3-2-0.3-3.1 0.5 0.2 1 0.1 0.9-0.6-0.5-3.3-1.7-5.8-3-8.2 0.7-3.4 0.8-7.4 2.4-10.4 1.4-2.7 4-4.1 5.8-6.4 0.6-0.8 0.6-1.9 1.2-2.6 2-2 4-4.1 6.2-5.9 1-0.8 2.2 0 3.7-0.3 0.5-1.8 2.5-3.4 4.4-2.9 0.8 0.2 2.4-1.9 2.9-2.1 0.8-0.3 0.4 0.8 0.4 1.5 1.9-1.5 4.5-2.3 6.9-3.2" fill="#ffffff" fill-rule="nonzero" stroke="none" stroke-width="1" stroke-linecap="butt" stroke-linejoin="miter" stroke-miterlimit="10" stroke-dasharray="" stroke-dashoffset="0" font-family="none" font-weight="none" font-size="none" text-anchor="none" style="mix-blend-mode: normal" data-fill-palette-color="tertiary"></path></g><g transform="matrix(1,0,0,1,64,120.23595009359443)"><svg viewBox="0 0 192 119.52809981281115" height="119.52809981281115" width="192"><g><svg viewBox="0 0 192 119.52809981281115" height="119.52809981281115" width="192"><g><svg viewBox="0 0 192 119.52809981281115" height="119.52809981281115" width="192"><g transform="matrix(1,0,0,1,0,72.24499327447727)"><svg viewBox="0 0 192 47.28310653833389" height="47.28310653833389" width="192"><g id="textblocktransform"><svg viewBox="0 0 192 47.28310653833389" height="47.28310653833389" width="192" id="textblock"><g><svg viewBox="0 0 192 47.28310653833389" height="47.28310653833389" width="192"><g transform="matrix(1,0,0,1,0,0)"><svg width="192" viewBox="4.39 -35.99 147.11 36.230000000000004" height="47.28310653833389" data-palette-color="#000000"><path d="M4.39 0L4.39-35.99 10.25-35.99 10.25 0 4.39 0ZM20.61-14.16L28.81 0 22.61 0 15.82-13.04Q15.67-13.04 15.5-13.01 15.33-12.99 14.99-12.99 14.65-12.99 13.99-12.99 13.33-12.99 12.26-12.99L12.26-12.99 12.26-17.29 15.58-17.29Q16.65-17.29 17.72-17.65 18.8-18.02 19.68-18.85 20.56-19.68 21.09-21.17 21.63-22.66 21.63-24.85L21.63-24.85Q21.63-25.73 21.39-26.88 21.14-28.03 20.39-29.08 19.63-30.13 18.26-30.83 16.89-31.54 14.65-31.54L14.65-31.54 12.26-31.54 12.26-35.99 14.75-35.99Q17.04-35.99 19.29-35.25 21.53-34.52 23.32-33.06 25.1-31.59 26.2-29.52 27.29-27.44 27.29-24.85L27.29-24.85Q27.29-20.95 25.49-18.21 23.68-15.48 20.61-14.16L20.61-14.16ZM41.21-8.3L41.21-8.3Q41.21-6.1 42.11-5.03 43.02-3.96 44.72-3.76L44.72-3.76 44.72 0.2Q44.53 0.24 44.09 0.24L44.09 0.24Q42.43 0.24 40.89-0.2 39.35-0.63 38.18-1.61 37.01-2.59 36.35-4.2 35.69-5.81 35.69-8.15L35.69-8.15Q35.69-10.4 36.64-12.04 37.6-13.67 39.08-14.72 40.57-15.77 42.48-16.28 44.38-16.8 46.34-16.8L46.34-16.8 48.48-16.8 48.48-13.33 47.41-13.33Q46.43-13.33 45.36-13.13 44.28-12.94 43.36-12.4 42.43-11.87 41.82-10.86 41.21-9.86 41.21-8.3ZM56.39-8.54L56.39-8.15Q56.39-7.76 56.44-7.01 56.49-6.25 56.64-5.47 56.78-4.69 57.1-4.05 57.42-3.42 57.96-3.22L57.96-3.22 56.39 0.05Q55.76 0.05 55.05-0.24 54.34-0.54 53.68-1.07 53.02-1.61 52.56-2.27 52.1-2.93 51.85-3.71L51.85-3.71Q51.36-2.49 49.92-1.54 48.48-0.59 46.73-0.15L46.73-0.15 46.73-3.86Q47.9-4.1 48.85-4.81 49.8-5.52 50.49-6.49L50.49-6.49 50.49-16.8Q50.49-19.19 50.24-20.61 50-22.02 49.41-22.68 48.83-23.34 47.97-23.51 47.12-23.68 45.94-23.68L45.94-23.68Q44.87-23.68 43.92-23.41 42.97-23.14 42.16-22.78 41.35-22.41 40.74-21.97 40.13-21.53 39.84-21.29L39.84-21.29 37.64-24.66Q38.13-25.2 39.11-25.76 40.09-26.32 41.35-26.76 42.62-27.2 44.11-27.47 45.6-27.73 47.21-27.73L47.21-27.73Q48.68-27.73 50.07-27.44 51.46-27.15 52.61-26.46 53.76-25.78 54.61-24.63 55.47-23.49 55.81-21.78L55.81-21.78Q56.15-20.07 56.27-18.33 56.39-16.6 56.39-14.89L56.39-14.89 56.39-8.54ZM78.51-23.19L78.51-27.78Q81.15-27.54 83.27-26.37 85.4-25.2 86.91-23.34 88.42-21.48 89.23-19.09 90.03-16.7 90.03-14.11L90.03-14.11Q90.03-12.94 89.89-11.77L89.89-11.77 73.14-11.77 73.14-16.06 84.42-16.06Q84.42-17.33 84-18.51 83.59-19.68 82.78-20.68 81.98-21.68 80.9-22.36 79.83-23.05 78.51-23.19L78.51-23.19ZM78.32-4.59L78.32-4.59Q78.85-4.59 79.66-4.71 80.46-4.83 81.37-5.15 82.27-5.47 83.17-5.96 84.08-6.45 84.76-7.13L84.76-7.13 86.91-3.86Q85.3-1.86 83.15-0.83 81 0.2 77.68 0.2L77.68 0.2Q75 0.2 72.65-0.9 70.31-2 68.65-3.91 66.99-5.81 66.01-8.35 65.03-10.89 65.03-13.82L65.03-13.82Q65.03-16.6 65.94-19.09 66.84-21.58 68.4-23.46 69.97-25.34 72.04-26.51 74.12-27.69 76.51-27.83L76.51-27.83 76.51-23.14Q74.7-22.8 73.53-21.68 72.36-20.56 71.7-19.12 71.04-17.68 70.77-16.16 70.5-14.65 70.5-13.57L70.5-13.57Q70.5-11.67 70.97-10.03 71.43-8.4 72.41-7.2 73.38-6.01 74.82-5.3 76.26-4.59 78.32-4.59ZM110.93-23.19L110.93-27.78Q113.57-27.54 115.69-26.37 117.81-25.2 119.33-23.34 120.84-21.48 121.65-19.09 122.45-16.7 122.45-14.11L122.45-14.11Q122.45-12.94 122.31-11.77L122.31-11.77 105.56-11.77 105.56-16.06 116.84-16.06Q116.84-17.33 116.42-18.51 116.01-19.68 115.2-20.68 114.4-21.68 113.32-22.36 112.25-23.05 110.93-23.19L110.93-23.19ZM110.73-4.59L110.73-4.59Q111.27-4.59 112.08-4.71 112.88-4.83 113.79-5.15 114.69-5.47 115.59-5.96 116.5-6.45 117.18-7.13L117.18-7.13 119.33-3.86Q117.72-1.86 115.57-0.83 113.42 0.2 110.1 0.2L110.1 0.2Q107.41 0.2 105.07-0.9 102.73-2 101.07-3.91 99.41-5.81 98.43-8.35 97.45-10.89 97.45-13.82L97.45-13.82Q97.45-16.6 98.36-19.09 99.26-21.58 100.82-23.46 102.39-25.34 104.46-26.51 106.54-27.69 108.93-27.83L108.93-27.83 108.93-23.14Q107.12-22.8 105.95-21.68 104.78-20.56 104.12-19.12 103.46-17.68 103.19-16.16 102.92-14.65 102.92-13.57L102.92-13.57Q102.92-11.67 103.39-10.03 103.85-8.4 104.83-7.2 105.8-6.01 107.24-5.3 108.68-4.59 110.73-4.59ZM130.56-22.8L130.56-27.54 151.5-27.54 151.5-22.8 137.34-5.52 136.37-4.74 151.5-4.74 151.5 0 130.56 0 130.56-4.74 144.72-22.02 145.69-22.8 130.56-22.8Z" opacity="1" transform="matrix(1,0,0,1,0,0)" fill="#ffffff" class="wordmark-text-0" data-fill-palette-color="primary" id="text-0"></path></svg></g></svg></g></svg></g></svg></g><g transform="matrix(1,0,0,1,63.32737338201128,0)"><svg viewBox="0 0 65.34525323597744 65.34525323597744" height="65.34525323597744" width="65.34525323597744"><g><svg xmlns="http://www.w3.org/2000/svg" xmlns:xlink="http://www.w3.org/1999/xlink" version="1.1" x="0" y="0" viewBox="2 2 60 60" style="enable-background:new 0 0 64 64;" xml:space="preserve" height="65.34525323597744" width="65.34525323597744" class="icon-icon-0" data-fill-palette-color="accent" id="icon-0"><rect x="2" y="2" width="2" height="2" fill="#ffffff" data-fill-palette-color="accent"></rect><rect x="6" y="2" width="2" height="2" fill="#ffffff" data-fill-palette-color="accent"></rect><rect x="8" y="10" width="2" height="2" fill="#ffffff" data-fill-palette-color="accent"></rect><rect x="12" y="10" width="2" height="2" fill="#ffffff" data-fill-palette-color="accent"></rect><rect x="10" y="6" width="3" height="2" fill="#ffffff" data-fill-palette-color="accent"></rect><rect x="10" y="2" width="5" height="2" fill="#ffffff" data-fill-palette-color="accent"></rect><rect x="2" y="6" width="6" height="2" fill="#ffffff" data-fill-palette-color="accent"></rect><rect x="2" y="10" width="4" height="2" fill="#ffffff" data-fill-palette-color="accent"></rect><rect x="9" y="28" width="2" height="2" fill="#ffffff" data-fill-palette-color="accent"></rect><rect x="7" y="20" width="2" height="2" fill="#ffffff" data-fill-palette-color="accent"></rect><rect x="3" y="20" width="2" height="2" fill="#ffffff" data-fill-palette-color="accent"></rect><rect x="4" y="24" width="3" height="2" fill="#ffffff" data-fill-palette-color="accent"></rect><rect x="2" y="28" width="5" height="2" fill="#ffffff" data-fill-palette-color="accent"></rect><rect x="9" y="24" width="3" height="2" fill="#ffffff" data-fill-palette-color="accent"></rect><rect x="11" y="20" width="3" height="2" fill="#ffffff" data-fill-palette-color="accent"></rect><rect x="49" y="2" width="2" height="2" fill="#ffffff" data-fill-palette-color="accent"></rect><rect x="53" y="2" width="2" height="2" fill="#ffffff" data-fill-palette-color="accent"></rect><rect x="56" y="10" width="2" height="2" fill="#ffffff" data-fill-palette-color="accent"></rect><rect x="60" y="10" width="2" height="2" fill="#ffffff" data-fill-palette-color="accent"></rect><rect x="57" y="6" width="3" height="2" fill="#ffffff" data-fill-palette-color="accent"></rect><rect x="57" y="2" width="5" height="2" fill="#ffffff" data-fill-palette-color="accent"></rect><rect x="49" y="6" width="6" height="2" fill="#ffffff" data-fill-palette-color="accent"></rect><rect x="51" y="10" width="3" height="2" fill="#ffffff" data-fill-palette-color="accent"></rect><rect x="60" y="28" width="2" height="2" fill="#ffffff" data-fill-palette-color="accent"></rect><rect x="55" y="20" width="2" height="2" fill="#ffffff" data-fill-palette-color="accent"></rect><rect x="51" y="20" width="2" height="2" fill="#ffffff" data-fill-palette-color="accent"></rect><rect x="52" y="24" width="3" height="2" fill="#ffffff" data-fill-palette-color="accent"></rect><rect x="53" y="28" width="5" height="2" fill="#ffffff" data-fill-palette-color="accent"></rect><rect x="57" y="24" width="3" height="2" fill="#ffffff" data-fill-palette-color="accent"></rect><rect x="59" y="20" width="3" height="2" fill="#ffffff" data-fill-palette-color="accent"></rect><rect x="2" y="39" width="2" height="2" fill="#ffffff" data-fill-palette-color="accent"></rect><rect x="6" y="39" width="2" height="2" fill="#ffffff" data-fill-palette-color="accent"></rect><rect x="8" y="47" width="2" height="2" fill="#ffffff" data-fill-palette-color="accent"></rect><rect x="15" y="43" width="2" height="2" fill="#ffffff" data-fill-palette-color="accent"></rect><rect x="10" y="43" width="3" height="2" fill="#ffffff" data-fill-palette-color="accent"></rect><rect x="10" y="39" width="5" height="2" fill="#ffffff" data-fill-palette-color="accent"></rect><rect x="2" y="43" width="6" height="2" fill="#ffffff" data-fill-palette-color="accent"></rect><rect x="2" y="47" width="4" height="2" fill="#ffffff" data-fill-palette-color="accent"></rect><path d="M61 41H51A1 1 0 0 0 50.292 41.294L44.295 47.291A1 1 0 0 0 44.007 47.966L40 46.328V41.414L45.707 35.707A1 1 0 0 0 46 35V31.949C48.244 31.697 50 29.81 50 27.5 50 25.586 48.793 23.958 47.105 23.309L47.707 22.707A1 1 0 0 0 48 22V15C48 10.037 43.963 6 39 6H38.92C37.5 3.551 34.851 2 32 2H25A1 1 0 0 0 24 3C24 4.042 24.2 5.06 24.588 6.01 19.816 6.226 16 10.176 16 15V22C16 22.266 16.105 22.52 16.293 22.707L16.895 23.309C15.207 23.958 14 25.586 14 27.5 14 29.81 15.756 31.697 18 31.949V35C18 35.266 18.105 35.52 18.293 35.707L24 41.414V46.328L2.621 55.074C2.245 55.229 2 55.594 2 56V61A1 1 0 0 0 3 62H61A1 1 0 0 0 62 61V42A1 1 0 0 0 61 41M48 27.5C48 28.707 47.14 29.718 46 29.95V25.05C47.14 25.282 48 26.293 48 27.5M18 29.95C16.86 29.718 16 28.707 16 27.5S16.86 25.282 18 25.05zM18 21.586V15C18 11.141 21.141 8 25 8H26.26A1.001 1.001 0 0 0 27.081 6.428 5.95 5.95 0 0 1 26.084 4H32A6.03 6.03 0 0 1 37.414 7.43C37.58 7.778 37.932 8 38.317 8H39C42.859 8 46 11.141 46 15V21.586L45 22.586 44 21.586V15A1 1 0 0 0 42.909 14.004L32 14.996 21.091 14.004A1.003 1.003 0 0 0 20 15V21.586L19 22.586zM20 34.586V24.414L21.707 22.707A1 1 0 0 0 22 22V16.095L31.909 16.996A1 1 0 0 0 32.091 16.996L42 16.095V22C42 22.266 42.105 22.52 42.293 22.707L44 24.414V34.586L35.586 43H28.414zM38 43.414V46.485L32 50.771 26 46.485V43.414L27.293 44.707A1 1 0 0 0 28 45H36C36.266 45 36.52 44.895 36.707 44.707zM44 60H4V56.671L24.868 48.135 31.419 52.814A1 1 0 0 0 32.581 52.813L39.132 48.134 44 50.126zM50 44.414V47H47.414zM60 60H46V49H51A1 1 0 0 0 52 48V43H60z" fill="#ffffff" data-fill-palette-color="accent"></path><rect x="48" y="51" width="2" height="2" fill="#ffffff" data-fill-palette-color="accent"></rect><rect x="52" y="51" width="2" height="2" fill="#ffffff" data-fill-palette-color="accent"></rect><rect x="56" y="51" width="2" height="2" fill="#ffffff" data-fill-palette-color="accent"></rect><rect x="48" y="55" width="4" height="2" fill="#ffffff" data-fill-palette-color="accent"></rect><rect x="54" y="55" width="4" height="2" fill="#ffffff" data-fill-palette-color="accent"></rect><rect x="54" y="47" width="4" height="2" fill="#ffffff" data-fill-palette-color="accent"></rect><rect x="31" y="55" width="2" height="2" fill="#ffffff" data-fill-palette-color="accent"></rect><path d="M25.414 27L27.707 24.707 26.293 23.293 23.293 26.293A1 1 0 0 0 23.293 27.707L26.293 30.707 27.707 29.293z" fill="#ffffff" data-fill-palette-color="accent"></path><path d="M37.707 30.707L40.707 27.707A1 1 0 0 0 40.707 26.293L37.707 23.293 36.293 24.707 38.586 27 36.293 29.293z" fill="#ffffff" data-fill-palette-color="accent"></path><rect x="27.528" y="26" transform="matrix(0.4472 -0.8944 0.8944 0.4472 -6.4604 43.5469)" width="8.944" height="2" fill="#ffffff" data-fill-palette-color="accent"></rect><rect x="31" y="34" width="2" height="2" fill="#ffffff" data-fill-palette-color="accent"></rect><rect x="35" y="34" width="2" height="2" fill="#ffffff" data-fill-palette-color="accent"></rect><rect x="27" y="34" width="2" height="2" fill="#ffffff" data-fill-palette-color="accent"></rect></svg></g></svg></g><g></g></svg></g></svg></g></svg></g></svg></g><defs></defs></svg><rect width="320" height="360" fill="none" stroke="none" visibility="hidden"></rect></g></svg></g></svg>